<svg width="16" height="16" viewBox="0 0 16 16" fill="none" xmlns="http://www.w3.org/2000/svg">
<path d="M14.8333 2.91667L15.5 2.25C14.3333 1.08333 12.8333 0.5 11.3333 0.5C9.83333 0.5 8.33333 1.08333 7.16667 2.25L7.83333 2.91667C8.83333 2 10.0833 1.5 11.3333 1.5C12.5833 1.5 13.8333 2 14.8333 2.91667ZM14.0833 3.58333C13.3333 2.83333 12.3333 2.41667 11.3333 2.41667C10.3333 2.41667 9.33333 2.83333 8.58333 3.58333L9.25 4.25C9.83333 3.66667 10.5833 3.41667 11.3333 3.41667C12.0833 3.41667 12.8333 3.66667 13.4167 4.25L14.0833 3.58333ZM13.8333 8.83333H12.1667V5.5H10.5V8.83333H2.16667C1.25 8.83333 0.5 9.58333 0.5 10.5V13.8333C0.5 14.75 1.25 15.5 2.16667 15.5H13.8333C14.75 15.5 15.5 14.75 15.5 13.8333V10.5C15.5 9.58333 14.75 8.83333 13.8333 8.83333ZM4.66667 13H3V11.3333H4.66667V13ZM7.58333 13H5.91667V11.3333H7.58333V13ZM10.5 13H8.83333V11.3333H10.5V13Z" fill="#6B7B94"/>
</svg>
