<svg width="20" height="20" viewBox="0 0 20 20" fill="none" xmlns="http://www.w3.org/2000/svg">
<path fill-rule="evenodd" clip-rule="evenodd" d="M9.99984 14.1667C10.4601 14.1667 10.8332 14.5398 10.8332 15V18.3333C10.8332 18.7936 10.4601 19.1667 9.99984 19.1667C9.5396 19.1667 9.1665 18.7936 9.1665 18.3333V15C9.1665 14.5398 9.5396 14.1667 9.99984 14.1667Z" fill="currentColor"/>
<path fill-rule="evenodd" clip-rule="evenodd" d="M12.9443 12.9441C13.2697 12.6187 13.7973 12.6187 14.1228 12.9441L16.4811 15.3024C16.8066 15.6279 16.8066 16.1555 16.4811 16.4809C16.1557 16.8064 15.628 16.8064 15.3026 16.4809L12.9443 14.1226C12.6188 13.7972 12.6188 13.2695 12.9443 12.9441Z" fill="currentColor"/>
<path fill-rule="evenodd" clip-rule="evenodd" d="M7.05583 12.9441C7.38126 13.2695 7.38126 13.7972 7.05583 14.1226L4.69749 16.4809C4.37205 16.8064 3.84442 16.8064 3.51898 16.4809C3.19354 16.1555 3.19354 15.6279 3.51898 15.3024L5.87731 12.9441C6.20275 12.6187 6.73039 12.6187 7.05583 12.9441Z" fill="currentColor"/>
<path fill-rule="evenodd" clip-rule="evenodd" d="M14.1665 9.99999C14.1665 9.53975 14.5396 9.16666 14.9998 9.16666H18.3332C18.7934 9.16666 19.1665 9.53975 19.1665 9.99999C19.1665 10.4602 18.7934 10.8333 18.3332 10.8333H14.9998C14.5396 10.8333 14.1665 10.4602 14.1665 9.99999Z" fill="currentColor"/>
<path fill-rule="evenodd" clip-rule="evenodd" d="M0.833496 9.99999C0.833496 9.53975 1.20659 9.16666 1.66683 9.16666H5.00016C5.4604 9.16666 5.8335 9.53975 5.8335 9.99999C5.8335 10.4602 5.4604 10.8333 5.00016 10.8333H1.66683C1.20659 10.8333 0.833496 10.4602 0.833496 9.99999Z" fill="currentColor"/>
<path fill-rule="evenodd" clip-rule="evenodd" d="M16.4811 3.51907C16.8066 3.84451 16.8066 4.37215 16.4811 4.69758L14.1228 7.05592C13.7973 7.38135 13.2697 7.38135 12.9443 7.05592C12.6188 6.73048 12.6188 6.20284 12.9443 5.87741L15.3026 3.51907C15.628 3.19363 16.1557 3.19363 16.4811 3.51907Z" fill="currentColor"/>
<path fill-rule="evenodd" clip-rule="evenodd" d="M3.51898 3.51907C3.84442 3.19363 4.37205 3.19363 4.69749 3.51907L7.05583 5.87741C7.38126 6.20284 7.38126 6.73048 7.05583 7.05592C6.73039 7.38135 6.20275 7.38135 5.87731 7.05592L3.51898 4.69758C3.19354 4.37215 3.19354 3.84451 3.51898 3.51907Z" fill="currentColor"/>
<path fill-rule="evenodd" clip-rule="evenodd" d="M9.99984 0.833344C10.4601 0.833344 10.8332 1.20644 10.8332 1.66668V5.00001C10.8332 5.46025 10.4601 5.83334 9.99984 5.83334C9.5396 5.83334 9.1665 5.46025 9.1665 5.00001V1.66668C9.1665 1.20644 9.5396 0.833344 9.99984 0.833344Z" fill="currentColor"/>
</svg>
