<svg width="20" height="10" viewBox="0 0 20 10" fill="none" xmlns="http://www.w3.org/2000/svg">
<path d="M19.1673 1.66667C19.1673 2.58333 18.4173 3.33333 17.5006 3.33333C17.3506 3.33333 17.209 3.31667 17.0756 3.275L14.109 6.23333C14.1507 6.36667 14.1673 6.51667 14.1673 6.66667C14.1673 7.58333 13.4173 8.33333 12.5007 8.33333C11.584 8.33333 10.834 7.58333 10.834 6.66667C10.834 6.51667 10.8506 6.36667 10.8923 6.23333L8.76732 4.10833C8.63398 4.15 8.48398 4.16667 8.33398 4.16667C8.18398 4.16667 8.03398 4.15 7.90065 4.10833L4.10898 7.90833C4.15065 8.04167 4.16732 8.18333 4.16732 8.33333C4.16732 9.25 3.41732 10 2.50065 10C1.58398 10 0.833984 9.25 0.833984 8.33333C0.833984 7.41667 1.58398 6.66667 2.50065 6.66667C2.65065 6.66667 2.79232 6.68333 2.92565 6.725L6.72565 2.93333C6.68398 2.8 6.66732 2.65 6.66732 2.5C6.66732 1.58333 7.41732 0.833333 8.33398 0.833333C9.25065 0.833333 10.0007 1.58333 10.0007 2.5C10.0007 2.65 9.98398 2.8 9.94232 2.93333L12.0673 5.05833C12.2006 5.01667 12.3506 5 12.5007 5C12.6507 5 12.8007 5.01667 12.934 5.05833L15.8923 2.09167C15.8506 1.95833 15.834 1.81667 15.834 1.66667C15.834 0.75 16.584 0 17.5006 0C18.4173 0 19.1673 0.75 19.1673 1.66667Z" fill="#6B7B94"/>
</svg>
