<svg width="20" height="12" viewBox="0 0 20 12" fill="none" xmlns="http://www.w3.org/2000/svg">
<path d="M13.332 5.16669C14.7154 5.16669 15.8237 4.05002 15.8237 2.66669C15.8237 1.28335 14.7154 0.166687 13.332 0.166687C11.9487 0.166687 10.832 1.28335 10.832 2.66669C10.832 4.05002 11.9487 5.16669 13.332 5.16669ZM6.66536 5.16669C8.0487 5.16669 9.15703 4.05002 9.15703 2.66669C9.15703 1.28335 8.0487 0.166687 6.66536 0.166687C5.28203 0.166687 4.16536 1.28335 4.16536 2.66669C4.16536 4.05002 5.28203 5.16669 6.66536 5.16669ZM6.66536 6.83335C4.7237 6.83335 0.832031 7.80835 0.832031 9.75002V11.8334H12.4987V9.75002C12.4987 7.80835 8.60703 6.83335 6.66536 6.83335ZM13.332 6.83335C13.0904 6.83335 12.8154 6.85002 12.5237 6.87502C13.4904 7.57502 14.1654 8.51669 14.1654 9.75002V11.8334H19.1654V9.75002C19.1654 7.80835 15.2737 6.83335 13.332 6.83335Z" fill="#6B7B94"/>
</svg>
